<mxfile host="app.diagrams.net" agent="Mozilla/5.0 (Windows NT 10.0; Win64; x64) AppleWebKit/537.36 (KHTML, like Gecko) Chrome/130.0.0.0 Safari/537.36" version="24.8.3">
  <diagram name="第 1 页" id="noqB0iYA2wKHdBiDA_gs">
    <mxGraphModel dx="2144" dy="792" grid="1" gridSize="10" guides="1" tooltips="1" connect="1" arrows="1" fold="1" page="1" pageScale="1" pageWidth="827" pageHeight="1169" math="0" shadow="0">
      <root>
        <mxCell id="0" />
        <mxCell id="1" parent="0" />
        <mxCell id="pKM-k67GOYyRMHN3q4r0-1" value="" style="shape=actor;whiteSpace=wrap;html=1;" vertex="1" parent="1">
          <mxGeometry x="-150" y="282.5" width="30" height="40" as="geometry" />
        </mxCell>
        <mxCell id="pKM-k67GOYyRMHN3q4r0-4" value="登录进入主页" style="text;html=1;align=center;verticalAlign=middle;resizable=0;points=[];autosize=1;strokeColor=none;fillColor=none;" vertex="1" parent="1">
          <mxGeometry x="-120" y="287.5" width="100" height="30" as="geometry" />
        </mxCell>
        <mxCell id="pKM-k67GOYyRMHN3q4r0-67" value="" style="edgeStyle=orthogonalEdgeStyle;rounded=0;orthogonalLoop=1;jettySize=auto;html=1;" edge="1" parent="1" source="pKM-k67GOYyRMHN3q4r0-10" target="pKM-k67GOYyRMHN3q4r0-25">
          <mxGeometry relative="1" as="geometry" />
        </mxCell>
        <mxCell id="pKM-k67GOYyRMHN3q4r0-10" value="iForm&lt;div&gt;表单设计器&lt;/div&gt;" style="rounded=0;whiteSpace=wrap;html=1;" vertex="1" parent="1">
          <mxGeometry x="20" y="22.5" width="100" height="50" as="geometry" />
        </mxCell>
        <mxCell id="pKM-k67GOYyRMHN3q4r0-75" style="edgeStyle=orthogonalEdgeStyle;rounded=0;orthogonalLoop=1;jettySize=auto;html=1;entryX=0;entryY=0.5;entryDx=0;entryDy=0;" edge="1" parent="1" source="pKM-k67GOYyRMHN3q4r0-19" target="pKM-k67GOYyRMHN3q4r0-40">
          <mxGeometry relative="1" as="geometry" />
        </mxCell>
        <mxCell id="pKM-k67GOYyRMHN3q4r0-19" value="工作台&lt;div&gt;（&lt;span style=&quot;background-color: initial;&quot;&gt;查看用户自己&lt;/span&gt;&lt;/div&gt;&lt;div&gt;创建&lt;span style=&quot;background-color: initial;&quot;&gt;的表单列表）&lt;/span&gt;&lt;/div&gt;" style="whiteSpace=wrap;html=1;" vertex="1" parent="1">
          <mxGeometry x="20" y="292.5" width="140" height="70" as="geometry" />
        </mxCell>
        <mxCell id="pKM-k67GOYyRMHN3q4r0-28" value="修改表单名称，&lt;div&gt;删除表单&lt;/div&gt;" style="ellipse;whiteSpace=wrap;html=1;" vertex="1" parent="1">
          <mxGeometry x="250" y="217.5" width="100" height="70" as="geometry" />
        </mxCell>
        <mxCell id="pKM-k67GOYyRMHN3q4r0-87" value="" style="edgeStyle=orthogonalEdgeStyle;rounded=0;orthogonalLoop=1;jettySize=auto;html=1;" edge="1" parent="1" source="pKM-k67GOYyRMHN3q4r0-31" target="pKM-k67GOYyRMHN3q4r0-33">
          <mxGeometry relative="1" as="geometry" />
        </mxCell>
        <mxCell id="pKM-k67GOYyRMHN3q4r0-31" value="修改单个表单设计" style="rounded=0;whiteSpace=wrap;html=1;" vertex="1" parent="1">
          <mxGeometry x="405" y="297.5" width="120" height="60" as="geometry" />
        </mxCell>
        <mxCell id="pKM-k67GOYyRMHN3q4r0-33" value="保存修改" style="ellipse;whiteSpace=wrap;html=1;" vertex="1" parent="1">
          <mxGeometry x="560" y="305" width="60" height="45" as="geometry" />
        </mxCell>
        <mxCell id="pKM-k67GOYyRMHN3q4r0-61" value="" style="edgeStyle=orthogonalEdgeStyle;rounded=0;orthogonalLoop=1;jettySize=auto;html=1;" edge="1" parent="1" source="pKM-k67GOYyRMHN3q4r0-34" target="pKM-k67GOYyRMHN3q4r0-37">
          <mxGeometry relative="1" as="geometry" />
        </mxCell>
        <mxCell id="pKM-k67GOYyRMHN3q4r0-63" style="edgeStyle=orthogonalEdgeStyle;rounded=0;orthogonalLoop=1;jettySize=auto;html=1;entryX=0;entryY=0.5;entryDx=0;entryDy=0;" edge="1" parent="1" source="pKM-k67GOYyRMHN3q4r0-34" target="pKM-k67GOYyRMHN3q4r0-62">
          <mxGeometry relative="1" as="geometry" />
        </mxCell>
        <mxCell id="pKM-k67GOYyRMHN3q4r0-64" value="todo" style="edgeLabel;html=1;align=center;verticalAlign=middle;resizable=0;points=[];" vertex="1" connectable="0" parent="pKM-k67GOYyRMHN3q4r0-63">
          <mxGeometry x="0.0476" y="9" relative="1" as="geometry">
            <mxPoint as="offset" />
          </mxGeometry>
        </mxCell>
        <mxCell id="pKM-k67GOYyRMHN3q4r0-34" value="个人信息（todo" style="rounded=0;whiteSpace=wrap;html=1;" vertex="1" parent="1">
          <mxGeometry x="20" y="732.5" width="120" height="60" as="geometry" />
        </mxCell>
        <mxCell id="pKM-k67GOYyRMHN3q4r0-37" value="信息修改" style="ellipse;whiteSpace=wrap;html=1;" vertex="1" parent="1">
          <mxGeometry x="190" y="697.5" width="90" height="55" as="geometry" />
        </mxCell>
        <mxCell id="pKM-k67GOYyRMHN3q4r0-80" style="edgeStyle=orthogonalEdgeStyle;rounded=0;orthogonalLoop=1;jettySize=auto;html=1;entryX=0;entryY=0.5;entryDx=0;entryDy=0;" edge="1" parent="1" source="pKM-k67GOYyRMHN3q4r0-40" target="pKM-k67GOYyRMHN3q4r0-41">
          <mxGeometry relative="1" as="geometry" />
        </mxCell>
        <mxCell id="pKM-k67GOYyRMHN3q4r0-81" style="edgeStyle=orthogonalEdgeStyle;rounded=0;orthogonalLoop=1;jettySize=auto;html=1;entryX=0;entryY=0.5;entryDx=0;entryDy=0;" edge="1" parent="1" source="pKM-k67GOYyRMHN3q4r0-40" target="pKM-k67GOYyRMHN3q4r0-47">
          <mxGeometry relative="1" as="geometry" />
        </mxCell>
        <mxCell id="pKM-k67GOYyRMHN3q4r0-86" style="edgeStyle=orthogonalEdgeStyle;rounded=0;orthogonalLoop=1;jettySize=auto;html=1;entryX=0;entryY=0.5;entryDx=0;entryDy=0;" edge="1" parent="1" source="pKM-k67GOYyRMHN3q4r0-40" target="pKM-k67GOYyRMHN3q4r0-31">
          <mxGeometry relative="1" as="geometry" />
        </mxCell>
        <mxCell id="pKM-k67GOYyRMHN3q4r0-40" value="表单发布" style="ellipse;whiteSpace=wrap;html=1;" vertex="1" parent="1">
          <mxGeometry x="252" y="297.5" width="96" height="60" as="geometry" />
        </mxCell>
        <mxCell id="pKM-k67GOYyRMHN3q4r0-41" value="表单信息&lt;div&gt;收集页面&lt;/div&gt;" style="whiteSpace=wrap;html=1;" vertex="1" parent="1">
          <mxGeometry x="405" y="227.5" width="100" height="50" as="geometry" />
        </mxCell>
        <mxCell id="pKM-k67GOYyRMHN3q4r0-47" value="生成分享海报&lt;div&gt;以及二维码&lt;/div&gt;" style="ellipse;whiteSpace=wrap;html=1;" vertex="1" parent="1">
          <mxGeometry x="405" y="392.5" width="90" height="70" as="geometry" />
        </mxCell>
        <mxCell id="pKM-k67GOYyRMHN3q4r0-59" value="" style="strokeWidth=2;html=1;shape=mxgraph.flowchart.annotation_1;align=left;pointerEvents=1;" vertex="1" parent="1">
          <mxGeometry x="-30" y="322.5" width="50" height="430" as="geometry" />
        </mxCell>
        <mxCell id="pKM-k67GOYyRMHN3q4r0-25" value="保存表单" style="ellipse;whiteSpace=wrap;html=1;" vertex="1" parent="1">
          <mxGeometry x="224" y="20" width="116" height="55" as="geometry" />
        </mxCell>
        <mxCell id="pKM-k67GOYyRMHN3q4r0-62" value="个人海报&lt;div&gt;名片分享&lt;/div&gt;" style="ellipse;whiteSpace=wrap;html=1;" vertex="1" parent="1">
          <mxGeometry x="190" y="812.5" width="100" height="50" as="geometry" />
        </mxCell>
        <mxCell id="pKM-k67GOYyRMHN3q4r0-70" value="" style="endArrow=classic;html=1;rounded=0;" edge="1" parent="1">
          <mxGeometry width="50" height="50" relative="1" as="geometry">
            <mxPoint x="170" y="307.5" as="sourcePoint" />
            <mxPoint x="240" y="272.5" as="targetPoint" />
          </mxGeometry>
        </mxCell>
        <mxCell id="pKM-k67GOYyRMHN3q4r0-73" value="" style="endArrow=classic;html=1;rounded=0;" edge="1" parent="1">
          <mxGeometry width="50" height="50" relative="1" as="geometry">
            <mxPoint x="250" y="75" as="sourcePoint" />
            <mxPoint x="130" y="282.5" as="targetPoint" />
          </mxGeometry>
        </mxCell>
        <mxCell id="pKM-k67GOYyRMHN3q4r0-74" value="跳转" style="text;html=1;align=center;verticalAlign=middle;resizable=0;points=[];autosize=1;strokeColor=none;fillColor=none;" vertex="1" parent="1">
          <mxGeometry x="165" y="140.5" width="50" height="30" as="geometry" />
        </mxCell>
        <mxCell id="pKM-k67GOYyRMHN3q4r0-88" style="edgeStyle=orthogonalEdgeStyle;rounded=0;orthogonalLoop=1;jettySize=auto;html=1;" edge="1" parent="1">
          <mxGeometry relative="1" as="geometry">
            <mxPoint x="380" y="522.5" as="targetPoint" />
            <mxPoint x="316" y="552.5" as="sourcePoint" />
          </mxGeometry>
        </mxCell>
        <mxCell id="pKM-k67GOYyRMHN3q4r0-85" value="" style="edgeStyle=none;orthogonalLoop=1;jettySize=auto;html=1;rounded=0;entryX=0;entryY=0;entryDx=0;entryDy=0;exitX=1.007;exitY=0.871;exitDx=0;exitDy=0;exitPerimeter=0;" edge="1" parent="1" source="pKM-k67GOYyRMHN3q4r0-19">
          <mxGeometry width="100" relative="1" as="geometry">
            <mxPoint x="170" y="362.5" as="sourcePoint" />
            <mxPoint x="226.55493939830785" y="531.1855419605622" as="targetPoint" />
            <Array as="points" />
          </mxGeometry>
        </mxCell>
        <mxCell id="pKM-k67GOYyRMHN3q4r0-89" value="数据传输的数据库" style="ellipse;whiteSpace=wrap;html=1;" vertex="1" parent="1">
          <mxGeometry x="380" y="482.5" width="100" height="55" as="geometry" />
        </mxCell>
        <mxCell id="pKM-k67GOYyRMHN3q4r0-92" style="edgeStyle=orthogonalEdgeStyle;rounded=0;orthogonalLoop=1;jettySize=auto;html=1;" edge="1" parent="1" source="pKM-k67GOYyRMHN3q4r0-90">
          <mxGeometry relative="1" as="geometry">
            <mxPoint x="380" y="622.5" as="targetPoint" />
          </mxGeometry>
        </mxCell>
        <mxCell id="pKM-k67GOYyRMHN3q4r0-90" value="配置数据库" style="whiteSpace=wrap;html=1;" vertex="1" parent="1">
          <mxGeometry x="224" y="532.5" width="90" height="40" as="geometry" />
        </mxCell>
        <mxCell id="pKM-k67GOYyRMHN3q4r0-91" value="信息补充数据库&lt;div&gt;（todo）&lt;/div&gt;" style="ellipse;whiteSpace=wrap;html=1;" vertex="1" parent="1">
          <mxGeometry x="385" y="592.5" width="105" height="50" as="geometry" />
        </mxCell>
        <mxCell id="pKM-k67GOYyRMHN3q4r0-93" value="" style="strokeWidth=2;html=1;shape=mxgraph.flowchart.annotation_1;align=left;pointerEvents=1;" vertex="1" parent="1">
          <mxGeometry x="-30" y="42.5" width="50" height="280" as="geometry" />
        </mxCell>
        <mxCell id="pKM-k67GOYyRMHN3q4r0-94" value="表单创建者" style="text;html=1;align=center;verticalAlign=middle;resizable=0;points=[];autosize=1;strokeColor=none;fillColor=none;" vertex="1" parent="1">
          <mxGeometry x="-170" y="320.5" width="80" height="30" as="geometry" />
        </mxCell>
        <mxCell id="pKM-k67GOYyRMHN3q4r0-100" style="edgeStyle=orthogonalEdgeStyle;rounded=0;orthogonalLoop=1;jettySize=auto;html=1;entryX=0;entryY=0.5;entryDx=0;entryDy=0;" edge="1" parent="1" source="pKM-k67GOYyRMHN3q4r0-95" target="pKM-k67GOYyRMHN3q4r0-97">
          <mxGeometry relative="1" as="geometry" />
        </mxCell>
        <mxCell id="pKM-k67GOYyRMHN3q4r0-95" value="" style="shape=actor;whiteSpace=wrap;html=1;" vertex="1" parent="1">
          <mxGeometry x="-150" y="950" width="40" height="60" as="geometry" />
        </mxCell>
        <mxCell id="pKM-k67GOYyRMHN3q4r0-96" value="表单填写者" style="text;html=1;align=center;verticalAlign=middle;resizable=0;points=[];autosize=1;strokeColor=none;fillColor=none;" vertex="1" parent="1">
          <mxGeometry x="-170" y="1010" width="80" height="30" as="geometry" />
        </mxCell>
        <mxCell id="pKM-k67GOYyRMHN3q4r0-102" style="edgeStyle=orthogonalEdgeStyle;rounded=0;orthogonalLoop=1;jettySize=auto;html=1;entryX=0;entryY=0.5;entryDx=0;entryDy=0;" edge="1" parent="1" source="pKM-k67GOYyRMHN3q4r0-97" target="pKM-k67GOYyRMHN3q4r0-101">
          <mxGeometry relative="1" as="geometry" />
        </mxCell>
        <mxCell id="pKM-k67GOYyRMHN3q4r0-97" value="表单填写页面" style="whiteSpace=wrap;html=1;" vertex="1" parent="1">
          <mxGeometry y="960" width="80" height="40" as="geometry" />
        </mxCell>
        <mxCell id="pKM-k67GOYyRMHN3q4r0-101" value="数据提交" style="ellipse;whiteSpace=wrap;html=1;" vertex="1" parent="1">
          <mxGeometry x="160" y="950" width="110" height="60" as="geometry" />
        </mxCell>
        <mxCell id="pKM-k67GOYyRMHN3q4r0-103" value="通过二维码或链接" style="text;html=1;align=center;verticalAlign=middle;resizable=0;points=[];autosize=1;strokeColor=none;fillColor=none;" vertex="1" parent="1">
          <mxGeometry x="-120" y="950" width="120" height="30" as="geometry" />
        </mxCell>
      </root>
    </mxGraphModel>
  </diagram>
</mxfile>
